<?xml version="1.0" encoding="utf-8"?>
<svg xmlns="http://www.w3.org/2000/svg"
	xmlns:xlink="http://www.w3.org/1999/xlink"
	width="9px" height="30px" viewBox="0 0 9 30">
<path fillRule="evenodd" d="M 9.01 25.71C 9.01 25.71 4.71 30.01 4.71 30.01 4.71 30.01 3.99 29.29 3.99 29.29 3.99 29.29 4.04 29.24 4.04 29.24 4.04 29.24 0.02 25.23 0.02 25.23 0.02 25.23 0.73 24.52 0.73 24.52 0.73 24.52 4 27.79 4 27.79 4 27.79 4-0 4-0 4-0 5-0 5-0 5-0 5 28.28 5 28.28 5 28.28 8.29 24.99 8.29 24.99 8.29 24.99 9.01 25.71 9.01 25.71Z" fill="rgb(192,192,192)"/></svg>